# xmcd
#
# Track frame offsets: 
#        150
#        11033
#        20101
#        33751
#        46276
#        58485
#        72311
#        85446
#        97128
#        110544
#        121476
#        134845
#        157554
#
# Disc length: 2261 seconds
#
# Revision: 0
# Processed by: cddbd v1.5.2PL0 Copyright (c) Steve Scherf et al.
# Submitted via: ExactAudioCopy v1.0b3
#
DISCID=b908d30d
DTITLE=Five Guys named Joe - Fannie Brown
DYEAR=2014
DGENRE=boogie-Woogie
TTITLE0=Oil Well Texas
TTITLE1=Bim Bam
TTITLE2=Have You Got The Gumption
TTITLE3=Reconversion Blues
TTITLE4=Choo Choo Ch'boogie
TTITLE5=Tiny's Tempo
TTITLE6=Fannie Brown Got Married
TTITLE7=The Hustle
TTITLE8=No Sale
TTITLE9=Safronia B
TTITLE10=Joe's Jam On Toast
TTITLE11=Saturday Night Fish Fry
TTITLE12=Salt Pork West Virginia
EXTD=
EXTT0=
EXTT1=
EXTT2=
EXTT3=
EXTT4=
EXTT5=
EXTT6=
EXTT7=
EXTT8=
EXTT9=
EXTT10=
EXTT11=
EXTT12=
PLAYORDER=
